name C:/MyDriveSym/Projects/mobilecap/Data\Session20210820_0002\mocap\ForceDataProcessed\walking3_forces.mot
datacolumns 19
datarows 14
range 1.05700000 1.06350000
endheader 
time	R_ground_force_vx	R_ground_force_vy	R_ground_force_vz	R_ground_force_px	R_ground_force_py	R_ground_force_pz	R_ground_torque_x	R_ground_torque_y	R_ground_torque_z	L_ground_force_vx	L_ground_force_vy	L_ground_force_vz	L_ground_force_px	L_ground_force_py	L_ground_force_pz	L_ground_torque_x	L_ground_torque_y	L_ground_torque_z	
          1.05700000	          0.00000000	          0.00000000	          0.00000000	          1.32497900	          0.00000000	         -0.12469600	          0.00000000	          0.00000000	          0.00000000	         37.75138200	        846.75974900	         37.68132000	          0.97100700	          0.00600000	         -0.24502300	          0.00000000	          5.94127900	          0.00000000	
          1.05750000	          0.00000000	          0.00000000	          0.00000000	          1.32636800	          0.00000000	         -0.12461200	          0.00000000	          0.00000000	          0.00000000	         38.03781500	        847.53407100	         37.71264800	          0.97128500	          0.00600000	         -0.24500400	          0.00000000	          5.93567700	          0.00000000	
          1.05800000	          0.00000000	          0.00000000	          0.00000000	          1.32775700	          0.00000000	         -0.12452800	          0.00000000	          0.00000000	          0.00000000	         38.32530300	        848.30448400	         37.74319600	          0.97156300	          0.00600000	         -0.24498500	          0.00000000	          5.93001700	          0.00000000	
          1.05850000	          0.00000000	          0.00000000	          0.00000000	          1.32914700	          0.00000000	         -0.12444300	          0.00000000	          0.00000000	          0.00000000	         38.61384600	        849.07089100	         37.77295800	          0.97184000	          0.00600000	         -0.24496600	          0.00000000	          5.92430000	          0.00000000	
          1.05900000	          0.00000000	          0.00000000	          0.00000000	          1.33053600	          0.00000000	         -0.12435900	          0.00000000	          0.00000000	          0.00000000	         38.90344200	        849.83319500	         37.80192500	          0.97211600	          0.00600000	         -0.24494600	          0.00000000	          5.91852700	          0.00000000	
          1.05950000	          0.00000000	          0.00000000	          0.00000000	          1.33192600	          0.00000000	         -0.12427400	          0.00000000	          0.00000000	          0.00000000	         39.19408900	        850.59129600	         37.83009100	          0.97239200	          0.00600000	         -0.24492700	          0.00000000	          5.91269800	          0.00000000	
          1.06000000	          0.00000000	          0.00000000	          0.00000000	          1.33331500	          0.00000000	         -0.12419000	          0.00000000	          0.00000000	          0.00000000	         39.48578700	        851.34509600	         37.85744800	          0.97266800	          0.00600000	         -0.24490700	          0.00000000	          5.90681300	          0.00000000	
          1.06050000	          0.00000000	          0.00000000	          0.00000000	          1.33470500	          0.00000000	         -0.12410500	          0.00000000	          0.00000000	          0.00000000	         39.77853300	        852.09449600	         37.88399000	          0.97294300	          0.00600000	         -0.24488700	          0.00000000	          5.90087500	          0.00000000	
          1.06100000	          0.00000000	          0.00000000	          0.00000000	          1.33609400	          0.00000000	         -0.12402100	          0.00000000	          0.00000000	          0.00000000	         40.07232500	        852.83939500	         37.90970800	          0.97321700	          0.00600000	         -0.24486800	          0.00000000	          5.89488200	          0.00000000	
          1.06150000	          0.00000000	          0.00000000	          0.00000000	          1.33748300	          0.00000000	         -0.12393600	          0.00000000	          0.00000000	          0.00000000	         40.36716200	        853.57969200	         37.93459600	          0.97349100	          0.00600000	         -0.24484700	          0.00000000	          5.88883700	          0.00000000	
          1.06200000	          0.00000000	          0.00000000	          0.00000000	          1.33887300	          0.00000000	         -0.12385200	          0.00000000	          0.00000000	          0.00000000	         40.66304100	        854.31528500	         37.95864700	          0.97376400	          0.00600000	         -0.24482700	          0.00000000	          5.88273900	          0.00000000	
          1.06250000	          0.00000000	          0.00000000	          0.00000000	          1.34026200	          0.00000000	         -0.12376700	          0.00000000	          0.00000000	          0.00000000	         40.95996000	        855.04607300	         37.98185300	          0.97403700	          0.00600000	         -0.24480700	          0.00000000	          5.87659000	          0.00000000	
          1.06300000	          0.00000000	          0.00000000	          0.00000000	          1.34165200	          0.00000000	         -0.12368300	          0.00000000	          0.00000000	          0.00000000	         41.25791600	        855.77195200	         38.00420900	          0.97431000	          0.00600000	         -0.24478700	          0.00000000	          5.87038900	          0.00000000	
          1.06350000	          0.00000000	          0.00000000	          0.00000000	          1.34304100	          0.00000000	         -0.12359800	          0.00000000	          0.00000000	          0.00000000	         41.55690600	        856.49282000	         38.02570800	          0.97458100	          0.00600000	         -0.24476600	          0.00000000	          5.86413900	          0.00000000	
